<svg width="868" height="513" viewBox="0 0 868 513" fill="none" xmlns="http://www.w3.org/2000/svg">
<path d="M23.6427 26.1975C56.2515 -7.40379 101.623 -10.0364 141.471 26.1975L433.623 308.32L725.766 26.1975C765.622 -10.0364 811.077 -7.40379 843.413 26.1975C858.632 42.7349 867.088 64.452 867.088 87.0012C867.088 109.55 858.632 131.267 843.413 147.805C813.047 179.288 492.442 486.782 492.442 486.782C484.814 494.76 475.667 501.106 465.548 505.441C455.429 509.776 444.545 512.01 433.549 512.01C422.552 512.01 411.669 509.776 401.55 505.441C391.43 501.106 382.283 494.76 374.655 486.782C374.655 486.782 54.1985 179.288 23.6922 147.805C8.46289 131.273 0 109.554 0 87.0012C0 64.4486 8.46289 42.7294 23.6922 26.1975H23.6427Z" fill="#3D6CEE"/>
</svg>
