<svg width="427" height="364" viewBox="0 0 427 364" fill="none" xmlns="http://www.w3.org/2000/svg">
<path d="M362.667 64.0005H335.36L328.533 42.6671C324.108 30.1494 315.899 19.3179 305.043 11.6732C294.188 4.0286 281.224 -0.0507072 267.947 0.000475811H158.72C145.313 0.0255576 132.252 4.26038 121.382 12.1073C110.511 19.9541 102.379 31.0168 98.1333 43.7338L91.3067 65.0671H64C47.0261 65.0671 30.7475 71.81 18.7452 83.8123C6.74284 95.8146 0 112.093 0 129.067V299.734C0 316.708 6.74284 332.986 18.7452 344.989C30.7475 356.991 47.0261 363.734 64 363.734H362.667C379.641 363.734 395.919 356.991 407.922 344.989C419.924 332.986 426.667 316.708 426.667 299.734V129.067C426.808 120.573 425.257 112.136 422.105 104.248C418.952 96.3593 414.26 89.1776 408.303 83.1212C402.346 77.0648 395.243 72.255 387.407 68.9722C379.572 65.6894 371.162 63.9993 362.667 64.0005ZM384 298.667C384 304.325 381.752 309.751 377.752 313.752C373.751 317.753 368.325 320 362.667 320H64C58.342 320 52.9158 317.753 48.9151 313.752C44.9143 309.751 42.6667 304.325 42.6667 298.667V128C42.6667 122.343 44.9143 116.916 48.9151 112.916C52.9158 108.915 58.342 106.667 64 106.667H106.667C111.319 106.91 115.922 105.623 119.775 103.004C123.627 100.384 126.516 96.5761 128 92.1605L139.52 57.1738C140.951 52.9366 143.678 49.2563 147.315 46.6531C150.951 44.0499 155.314 42.6556 159.787 42.6671H269.013C273.486 42.6556 277.849 44.0499 281.485 46.6531C285.122 49.2563 287.849 52.9366 289.28 57.1738L300.8 92.1605C302.169 96.2297 304.734 99.7912 308.159 102.379C311.585 104.968 315.712 106.462 320 106.667H362.667C368.325 106.667 373.751 108.915 377.752 112.916C381.752 116.916 384 122.343 384 128V298.667ZM213.333 106.667C196.456 106.667 179.958 111.672 165.925 121.048C151.892 130.425 140.954 143.752 134.496 159.345C128.037 174.937 126.347 192.095 129.64 208.648C132.932 225.201 141.059 240.406 152.994 252.34C164.928 264.274 180.133 272.402 196.686 275.694C213.239 278.987 230.396 277.297 245.989 270.838C261.582 264.38 274.909 253.442 284.285 239.409C293.662 225.376 298.667 208.878 298.667 192C298.667 169.369 289.676 147.664 273.673 131.661C257.67 115.658 235.965 106.667 213.333 106.667ZM213.333 234.667C204.895 234.667 196.646 232.165 189.629 227.476C182.613 222.788 177.144 216.125 173.914 208.328C170.685 200.532 169.84 191.953 171.486 183.677C173.133 175.4 177.196 167.798 183.163 161.831C189.13 155.864 196.733 151.8 205.009 150.154C213.286 148.507 221.865 149.352 229.661 152.582C237.457 155.811 244.121 161.28 248.809 168.296C253.498 175.313 256 183.562 256 192C256 203.316 251.505 214.169 243.503 222.17C235.502 230.172 224.649 234.667 213.333 234.667Z" fill="white"/>
</svg>
