<svg width="512" height="512" viewBox="0 0 512 512" fill="none" xmlns="http://www.w3.org/2000/svg">
<g clip-path="url(#clip0_125_40)">
<path d="M128 128H192V192H128V128ZM128 224H192V288H128V224ZM128 320H192V384H128V320ZM256 320H384V384H256V320Z" fill="#3D6CEE"/>
<path d="M480 0H32C14.312 0 0 14.312 0 32V480C0 497.688 14.312 512 32 512H480C497.688 512 512 497.688 512 480V32C512 14.312 497.688 0 480 0ZM448 448H64V64H448V448Z" fill="#3D6CEE"/>
<path d="M256 224H384V288H256V224ZM256 128H384V192H256V128Z" fill="#3D6CEE"/>
</g>
<defs>
<clipPath id="clip0_125_40">
<rect width="512" height="512" fill="white"/>
</clipPath>
</defs>
</svg>
