<svg width="427" height="427" viewBox="0 0 427 427" fill="none" xmlns="http://www.w3.org/2000/svg">
<path fill-rule="evenodd" clip-rule="evenodd" d="M362.667 0H64C28.6539 0 0 28.6539 0 64V106.667C0 118.449 9.55136 128 21.3333 128H42.6667V362.667C42.6667 398.014 71.3205 426.667 106.667 426.667H320C355.347 426.667 384 398.014 384 362.667V128H405.333C417.116 128 426.667 118.449 426.667 106.667V64C426.667 28.6539 398.014 0 362.667 0ZM170.667 320C170.667 331.782 161.115 341.333 149.333 341.333C137.551 341.333 128 331.782 128 320V192C128 180.218 137.551 170.667 149.333 170.667C161.115 170.667 170.667 180.218 170.667 192V320ZM277.333 341.333C289.116 341.333 298.667 331.782 298.667 320V192C298.667 180.218 289.116 170.667 277.333 170.667C265.551 170.667 256 180.218 256 192V320C256 331.782 265.551 341.333 277.333 341.333Z" fill="white"/>
</svg>
