<svg width="512" height="512" viewBox="0 0 512 512" fill="none" xmlns="http://www.w3.org/2000/svg">
<path d="M205.18 207.344L175.375 306.734C172.844 315.187 175.156 324.359 181.399 330.594C185.961 335.156 192.094 337.625 198.367 337.625C200.672 337.625 202.992 337.297 205.258 336.609L304.656 306.812C308.461 305.672 311.93 303.609 314.734 300.797L496.969 118.563C501.469 114.063 504 107.953 504 101.594C504 95.2345 501.469 89.125 496.969 84.625L427.367 15.0313C417.992 5.65624 402.805 5.65624 393.43 15.0313L211.203 197.266C208.391 200.078 206.328 203.531 205.18 207.344ZM249.422 226.922L410.399 65.9375L446.055 101.594L285.078 262.578L234.156 277.844L249.422 226.922Z" fill="#3D6CEE"/>
<path d="M480 232C466.742 232 456 242.75 456 256V416C456 438.063 438.055 456 416 456H96C73.9453 456 56 438.063 56 416V96C56 73.9374 73.9453 56 96 56H256C269.258 56 280 45.2499 280 32C280 18.7501 269.258 8 256 8H96C47.4766 8 8 47.4843 8 96V416C8 464.516 47.4766 504 96 504H416C464.523 504 504 464.516 504 416V256C504 242.75 493.258 232 480 232Z" fill="#3D6CEE"/>
</svg>
