<svg width="342" height="428" viewBox="0 0 342 428" fill="none" xmlns="http://www.w3.org/2000/svg">
<path d="M107 171.333H128.333C133.991 171.333 139.418 169.086 143.418 165.085C147.419 161.084 149.667 155.658 149.667 150C149.667 144.342 147.419 138.916 143.418 134.915C139.418 130.914 133.991 128.666 128.333 128.666H107C101.342 128.666 95.9159 130.914 91.9151 134.915C87.9143 138.916 85.6667 144.342 85.6667 150C85.6667 155.658 87.9143 161.084 91.9151 165.085C95.9159 169.086 101.342 171.333 107 171.333ZM107 214C101.342 214 95.9159 216.247 91.9151 220.248C87.9143 224.249 85.6667 229.675 85.6667 235.333C85.6667 240.991 87.9143 246.417 91.9151 250.418C95.9159 254.419 101.342 256.666 107 256.666H235C240.658 256.666 246.084 254.419 250.085 250.418C254.086 246.417 256.333 240.991 256.333 235.333C256.333 229.675 254.086 224.249 250.085 220.248C246.084 216.247 240.658 214 235 214H107ZM341.667 148.72C341.445 146.76 341.015 144.829 340.387 142.96V141.04C339.361 138.846 337.993 136.83 336.333 135.066L208.333 7.0665C206.57 5.40712 204.554 4.0389 202.36 3.01317C201.723 2.92272 201.077 2.92272 200.44 3.01317C198.273 1.77032 195.879 0.972514 193.4 0.666504H64.3334C47.3595 0.666504 31.0809 7.40934 19.0785 19.4117C7.07621 31.414 0.333374 47.6926 0.333374 64.6665V363.333C0.333374 380.307 7.07621 396.586 19.0785 408.588C31.0809 420.59 47.3595 427.333 64.3334 427.333H277.667C294.641 427.333 310.919 420.59 322.922 408.588C334.924 396.586 341.667 380.307 341.667 363.333V150C341.667 150 341.667 150 341.667 148.72ZM213.667 73.4132L268.92 128.666H235C229.342 128.666 223.916 126.419 219.915 122.418C215.914 118.417 213.667 112.991 213.667 107.333V73.4132ZM299 363.333C299 368.991 296.752 374.417 292.752 378.418C288.751 382.419 283.325 384.666 277.667 384.666H64.3334C58.6754 384.666 53.2492 382.419 49.2484 378.418C45.2477 374.417 43 368.991 43 363.333V64.6665C43 59.0085 45.2477 53.5823 49.2484 49.5816C53.2492 45.5808 58.6754 43.3332 64.3334 43.3332H171V107.333C171 124.307 177.743 140.586 189.745 152.588C201.748 164.59 218.026 171.333 235 171.333H299V363.333ZM235 299.333H107C101.342 299.333 95.9159 301.581 91.9151 305.582C87.9143 309.582 85.6667 315.009 85.6667 320.666C85.6667 326.324 87.9143 331.751 91.9151 335.751C95.9159 339.752 101.342 342 107 342H235C240.658 342 246.084 339.752 250.085 335.751C254.086 331.751 256.333 326.324 256.333 320.666C256.333 315.009 254.086 309.582 250.085 305.582C246.084 301.581 240.658 299.333 235 299.333Z" fill="black"/>
</svg>
