<svg width="342" height="427" viewBox="0 0 342 427" fill="none" xmlns="http://www.w3.org/2000/svg">
<path d="M106.667 170.667H128C133.658 170.667 139.084 168.419 143.085 164.418C147.086 160.417 149.333 154.991 149.333 149.333C149.333 143.675 147.086 138.249 143.085 134.248C139.084 130.248 133.658 128 128 128H106.667C101.009 128 95.5825 130.248 91.5817 134.248C87.581 138.249 85.3333 143.675 85.3333 149.333C85.3333 154.991 87.581 160.417 91.5817 164.418C95.5825 168.419 101.009 170.667 106.667 170.667ZM106.667 213.333C101.009 213.333 95.5825 215.581 91.5817 219.582C87.581 223.582 85.3333 229.009 85.3333 234.667C85.3333 240.325 87.581 245.751 91.5817 249.752C95.5825 253.752 101.009 256 106.667 256H234.667C240.325 256 245.751 253.752 249.752 249.752C253.752 245.751 256 240.325 256 234.667C256 229.009 253.752 223.582 249.752 219.582C245.751 215.581 240.325 213.333 234.667 213.333H106.667ZM341.333 148.053C341.111 146.094 340.682 144.163 340.053 142.293V140.373C339.028 138.18 337.659 136.164 336 134.4L208 6.4C206.236 4.74061 204.22 3.37239 202.027 2.34666C201.39 2.25621 200.743 2.25621 200.107 2.34666C197.94 1.10381 195.546 0.30601 193.067 0H64C47.0261 0 30.7475 6.74284 18.7452 18.7452C6.74284 30.7475 0 47.0261 0 64V362.667C0 379.64 6.74284 395.919 18.7452 407.921C30.7475 419.924 47.0261 426.667 64 426.667H277.333C294.307 426.667 310.586 419.924 322.588 407.921C334.591 395.919 341.333 379.64 341.333 362.667V149.333C341.333 149.333 341.333 149.333 341.333 148.053ZM213.333 72.7467L268.587 128H234.667C229.009 128 223.583 125.752 219.582 121.752C215.581 117.751 213.333 112.325 213.333 106.667V72.7467ZM298.667 362.667C298.667 368.325 296.419 373.751 292.418 377.752C288.418 381.752 282.991 384 277.333 384H64C58.342 384 52.9158 381.752 48.9151 377.752C44.9143 373.751 42.6667 368.325 42.6667 362.667V64C42.6667 58.342 44.9143 52.9158 48.9151 48.9151C52.9158 44.9143 58.342 42.6667 64 42.6667H170.667V106.667C170.667 123.641 177.41 139.919 189.412 151.921C201.414 163.924 217.693 170.667 234.667 170.667H298.667V362.667ZM234.667 298.667H106.667C101.009 298.667 95.5825 300.914 91.5817 304.915C87.581 308.916 85.3333 314.342 85.3333 320C85.3333 325.658 87.581 331.084 91.5817 335.085C95.5825 339.086 101.009 341.333 106.667 341.333H234.667C240.325 341.333 245.751 339.086 249.752 335.085C253.752 331.084 256 325.658 256 320C256 314.342 253.752 308.916 249.752 304.915C245.751 300.914 240.325 298.667 234.667 298.667Z" fill="white"/>
</svg>
