<svg width="362" height="302" viewBox="0 0 362 302" fill="none" xmlns="http://www.w3.org/2000/svg">
<path fill-rule="evenodd" clip-rule="evenodd" d="M0 30.117C0 13.484 13.4842 0 30.1181 0H331.294C347.928 0 361.412 13.484 361.412 30.117C361.412 46.751 347.928 60.235 331.294 60.235H30.1181C13.4842 60.235 0 46.751 0 30.117ZM0 271.058C0 254.425 13.4842 240.941 30.1181 240.941H331.294C347.928 240.941 361.412 254.425 361.412 271.058C361.412 287.692 347.928 301.176 331.294 301.176H30.1181C13.4842 301.176 0 287.692 0 271.058ZM0 150.588C0 133.954 13.4842 120.47 30.1181 120.47H331.294C347.928 120.47 361.412 133.954 361.412 150.588C361.412 167.221 347.928 180.706 331.294 180.706H30.1181C13.4842 180.706 0 167.221 0 150.588Z" fill="black"/>
</svg>
