<svg width="403" height="427" viewBox="0 0 403 427" fill="none" xmlns="http://www.w3.org/2000/svg">
<path d="M189.44 0C134.75 0.155993 82.2078 21.3102 42.6667 59.0933V21.3333C42.6667 15.6754 40.4191 10.2492 36.4183 6.24839C32.4175 2.24761 26.9913 0 21.3333 0C15.6754 0 10.2492 2.24761 6.24839 6.24839C2.24761 10.2492 0 15.6754 0 21.3333V117.333C0 122.991 2.24761 128.417 6.24839 132.418C10.2492 136.419 15.6754 138.667 21.3333 138.667H117.333C122.991 138.667 128.418 136.419 132.418 132.418C136.419 128.417 138.667 122.991 138.667 117.333C138.667 111.675 136.419 106.249 132.418 102.248C128.418 98.2476 122.991 96 117.333 96H66.1333C85.5831 75.4562 109.835 60.0696 136.707 51.2243C163.579 42.379 192.228 40.3524 220.078 45.327C247.927 50.3015 274.103 62.1211 296.251 79.7224C318.399 97.3238 335.824 120.155 346.959 146.162C358.094 172.169 362.589 200.536 360.04 228.711C357.491 256.886 347.979 283.986 332.357 307.572C316.736 331.159 295.497 350.492 270.55 363.833C245.602 377.174 217.73 384.104 189.44 384C183.782 384 178.356 386.248 174.355 390.248C170.354 394.249 168.107 399.675 168.107 405.333C168.107 410.991 170.354 416.417 174.355 420.418C178.356 424.419 183.782 426.667 189.44 426.667C246.019 426.667 300.282 404.191 340.289 364.183C380.297 324.175 402.773 269.913 402.773 213.333C402.773 156.754 380.297 102.492 340.289 62.4839C300.282 22.4761 246.019 0 189.44 0ZM189.44 128C183.782 128 178.356 130.248 174.355 134.248C170.354 138.249 168.107 143.675 168.107 149.333V213.333C168.107 218.991 170.354 224.417 174.355 228.418C178.356 232.419 183.782 234.667 189.44 234.667H232.107C237.765 234.667 243.191 232.419 247.192 228.418C251.192 224.417 253.44 218.991 253.44 213.333C253.44 207.675 251.192 202.249 247.192 198.248C243.191 194.248 237.765 192 232.107 192H210.773V149.333C210.773 143.675 208.526 138.249 204.525 134.248C200.524 130.248 195.098 128 189.44 128Z" fill="#3D6CEE"/>
</svg>
