<svg width="427" height="415" viewBox="0 0 427 415" fill="none" xmlns="http://www.w3.org/2000/svg">
<path d="M418.594 228.326C415.514 225.781 411.782 224.151 407.822 223.623C403.861 223.095 399.833 223.69 396.194 225.339C373.635 235.662 349.108 240.975 324.3 240.913C278.409 240.857 234.401 222.661 201.871 190.291C169.342 157.921 150.929 114.003 150.647 68.1128C150.744 53.7306 152.534 39.4098 155.98 25.4461C156.712 21.7243 156.437 17.8748 155.186 14.2942C153.934 10.7137 151.751 7.53151 148.86 5.07562C145.97 2.61972 142.477 0.978897 138.741 0.322188C135.005 -0.334521 131.162 0.0166341 127.607 1.33948C94.1633 16.3775 65.0912 39.6704 43.1219 69.0298C21.1526 98.3892 7.00715 132.851 2.0145 169.179C-2.97815 205.507 1.34584 242.507 14.5803 276.705C27.8147 310.903 49.5252 341.175 77.6721 364.677C105.819 388.18 139.479 404.142 175.489 411.063C211.499 417.985 248.677 415.639 283.531 404.246C318.386 392.852 349.772 372.786 374.741 345.932C399.71 319.077 417.443 286.316 426.274 250.726C427.349 246.651 427.194 242.349 425.827 238.363C424.46 234.376 421.943 230.884 418.594 228.326ZM215.927 371.046C180.125 370.794 145.275 359.481 116.151 338.656C87.0264 317.832 65.0506 288.515 53.2323 254.718C41.414 220.922 40.331 184.298 50.1316 149.862C59.9322 115.426 80.1373 84.8616 107.98 62.3528V68.1128C108.037 125.467 130.846 180.456 171.401 221.012C211.957 261.567 266.946 284.376 324.3 284.433C339.359 284.488 354.38 282.914 369.1 279.739C354.378 307.591 332.332 330.893 305.338 347.135C278.345 363.376 247.43 371.939 215.927 371.899V371.046Z" fill="black"/>
</svg>
