<svg width="384" height="353" viewBox="0 0 384 353" fill="none" xmlns="http://www.w3.org/2000/svg">
<path d="M207.865 192C234.375 192 255.865 213.49 255.865 240L255.84 263.948C259.132 322.718 213.867 352.026 129.926 352.026C46.2566 352.026 0 323.101 0 264.786V240C0 213.49 21.4903 192 48 192H207.865ZM335.884 192C362.394 192 383.884 213.49 383.884 240L383.86 256.85C386.754 309.569 346.758 336 273.651 336C263.727 336 254.398 335.517 245.685 334.549C262.86 318.689 272.047 297.167 272.016 269.97L271.815 263.053L271.865 240C271.865 220.878 263.479 203.714 250.183 191.987L335.884 192ZM128 0C172.19 0 208.013 35.823 208.013 80.013C208.013 124.203 172.19 160.026 128 160.026C83.8101 160.026 47.987 124.203 47.987 80.013C47.987 35.823 83.8101 0 128 0ZM288 32C323.346 32 352 60.6538 352 96C352 131.346 323.346 160 288 160C252.654 160 224 131.346 224 96C224 60.6538 252.654 32 288 32Z" fill="#3D6CEE"/>
</svg>
