<svg width="384" height="384" viewBox="0 0 384 384" fill="none" xmlns="http://www.w3.org/2000/svg">
<path d="M347.1 192C347.1 168.1 361.9 149.2 384 136.2C380 122.9 374.7 110 368.2 98C343.3 104.5 323.2 94.8 306.2 77.8C289.3 60.9 284.1 40.7 290.6 15.8C278.6 9.3 265.8 4 252.4 0C239.4 22.2 216 36.9 192 36.9C168.1 36.9 144.6 22.2 131.6 0C118.2 4 105.4 9.3 93.4 15.8C99.9 40.7 94.7 60.8 77.8 77.8C60.9 94.7 40.7 104.5 15.9 98C9.3 110 4 122.8 0 136.2C22.2 149.2 37 168.1 37 192C37 215.9 22.2 239.4 0 252.4C4 265.8 9.3 278.6 15.8 290.6C40.7 284.1 60.8 289.3 77.7 306.2C94.7 323.1 99.8 343.3 93.3 368.2C105.4 374.7 118.1 380 131.5 384C144.5 361.8 168 347.1 191.9 347.1C215.8 347.1 239.3 361.8 252.3 384C265.7 380 278.5 374.7 290.5 368.2C284 343.3 289.2 323.2 306.1 306.2C323 289.3 343.2 279.5 368.1 286C374.6 273.9 379.9 261.1 383.9 247.8C361.8 234.8 347.1 215.9 347.1 192ZM192 290.3C137.8 290.3 93.7 246.3 93.7 192C93.7 137.7 137.7 93.7 192 93.7C246.3 93.7 290.3 137.7 290.3 192C290.3 246.3 246.3 290.3 192 290.3Z" fill="white"/>
</svg>
