<svg width="427" height="427" viewBox="0 0 427 427" fill="none" xmlns="http://www.w3.org/2000/svg">
<path d="M389.909 85.7866C389.263 85.0784 388.555 84.4117 387.784 83.7866C353.534 55.7137 314.888 33.1409 272.867 16.6824L246.055 6.25531C225.284 -2.06767 201.45 -2.06767 180.888 6.15121L153.534 16.7138C111.68 33.1929 73.1173 55.7657 38.6588 84.0366C28.4167 92.4714 20.4858 103.193 15.0561 114.966C14.9272 115.205 14.6966 115.344 14.5756 115.589C14.4675 115.808 14.4948 116.047 14.3945 116.268C12.1628 121.333 10.2812 126.533 9.09637 131.922C-3.02864 185.505 -3.02864 241.787 9.07547 294.474C13.1589 313.068 23.7421 330.203 38.867 342.703C39.4921 343.214 40.1379 343.693 40.8254 344.141C74.3047 371.287 112.138 393.308 153.325 409.599L180.534 420.328C191 424.469 202.018 426.517 213.02 426.564C213.135 426.565 213.231 426.63 213.346 426.63C213.436 426.63 213.51 426.581 213.6 426.58C224.612 426.554 235.643 424.49 246.096 420.36L273.43 409.589C304.117 397.443 333.034 382.089 359.43 363.922C368.367 357.724 377.096 351.131 385.596 344.329C386.388 343.828 387.138 343.287 387.867 342.693C402.992 330.172 413.576 313.047 417.596 294.641C423.576 268.422 426.617 241.037 426.617 213.266C426.617 185.276 423.575 157.88 417.638 132.058C413.721 114.235 403.93 97.9116 389.909 85.7866ZM65.9715 116.787C96.7215 91.5782 131.451 71.2657 169.034 56.474L196.492 45.8594C207.2 41.5989 219.471 41.5573 230.388 45.9428L257.367 56.4324C258.732 56.9661 260.021 57.6315 261.378 58.1798L111.884 139.664L65.7513 117C65.8307 116.934 65.8919 116.853 65.9715 116.787ZM192.013 378.998L168.992 369.922C131.242 354.984 96.659 334.745 66.1797 309.755C65.7005 309.36 65.1796 308.974 64.6588 308.62C57.5755 302.307 52.6588 294.089 50.7004 285.13C41.0898 243.228 40.591 198.956 48.2629 155.949L80.4295 171.746V235.162C80.4295 246.943 89.9712 256.495 101.763 256.495C113.554 256.495 123.096 246.943 123.096 235.162V192.702L192.013 226.548L192.013 378.998ZM212.826 189.255L158.767 162.698L308.617 81.0184C324.732 90.2318 340.039 100.638 354.57 112.048L212.826 189.255ZM375.971 285.328C374.055 294.047 369.18 302.224 362.138 308.547C361.617 308.891 361.138 309.255 360.659 309.641C352.346 316.328 343.826 322.818 335.159 328.828C311.492 345.13 285.43 358.953 257.596 369.974L234.68 379V225.935L377.178 148.314C381.473 169.192 383.951 190.913 383.951 213.266C383.951 237.849 381.284 262.037 375.971 285.328Z" fill="black"/>
</svg>
