<svg width="427" height="427" viewBox="0 0 427 427" fill="none" xmlns="http://www.w3.org/2000/svg">
<path d="M64 213.333C64 207.675 61.7524 202.249 57.7516 198.248C53.7508 194.248 48.3246 192 42.6667 192H21.3333C15.6754 192 10.2492 194.248 6.24839 198.248C2.24761 202.249 0 207.675 0 213.333C0 218.991 2.24761 224.417 6.24839 228.418C10.2492 232.419 15.6754 234.667 21.3333 234.667H42.6667C48.3246 234.667 53.7508 232.419 57.7516 228.418C61.7524 224.417 64 218.991 64 213.333ZM77.6533 320L62.5067 335.147C58.5333 339.144 56.3031 344.551 56.3031 350.187C56.3031 355.823 58.5333 361.23 62.5067 365.227C66.5037 369.2 71.9107 371.43 77.5467 371.43C83.1826 371.43 88.5896 369.2 92.5867 365.227L107.733 350.08C111.228 345.999 113.055 340.749 112.847 335.38C112.64 330.011 110.414 324.918 106.615 321.119C102.815 317.319 97.7222 315.094 92.3531 314.886C86.984 314.679 81.7344 316.505 77.6533 320ZM213.333 64C218.991 64 224.417 61.7524 228.418 57.7516C232.419 53.7508 234.667 48.3246 234.667 42.6667V21.3333C234.667 15.6754 232.419 10.2492 228.418 6.24839C224.417 2.24761 218.991 0 213.333 0C207.675 0 202.249 2.24761 198.248 6.24839C194.248 10.2492 192 15.6754 192 21.3333V42.6667C192 48.3246 194.248 53.7508 198.248 57.7516C202.249 61.7524 207.675 64 213.333 64ZM334.08 113.92C339.677 113.896 345.04 111.675 349.013 107.733L364.16 92.5867C366.393 90.6742 368.207 88.3207 369.487 85.674C370.768 83.0273 371.488 80.1445 371.601 77.2065C371.714 74.2685 371.219 71.3387 370.147 68.6011C369.074 65.8635 367.448 63.3772 365.369 61.2981C363.289 59.2191 360.803 57.5923 358.066 56.5197C355.328 55.4472 352.398 54.9521 349.46 55.0656C346.522 55.1791 343.639 55.8987 340.993 57.1792C338.346 58.4597 335.992 60.2734 334.08 62.5067L320 77.6533C316.027 81.6504 313.796 87.0574 313.796 92.6933C313.796 98.3293 316.027 103.736 320 107.733C323.761 111.474 328.781 113.68 334.08 113.92ZM78.08 107.733C82.0536 111.675 87.4167 113.896 93.0133 113.92C95.8209 113.936 98.6041 113.398 101.203 112.336C103.803 111.275 106.167 109.711 108.16 107.733C112.133 103.736 114.364 98.3293 114.364 92.6933C114.364 87.0574 112.133 81.6504 108.16 77.6533L93.0133 62.5067C91.0382 60.5036 88.688 58.9091 86.0967 57.8143C83.5054 56.7195 80.7238 56.1459 77.9108 56.126C75.0978 56.1062 72.3085 56.6407 69.702 57.6989C67.0956 58.757 64.7231 60.3183 62.72 62.2933C60.7169 64.2684 59.1224 66.6187 58.0276 69.21C56.9329 71.8013 56.3592 74.5828 56.3394 77.3958C56.2994 83.0769 58.5178 88.5412 62.5067 92.5867L78.08 107.733ZM405.333 192H384C378.342 192 372.916 194.248 368.915 198.248C364.914 202.249 362.667 207.675 362.667 213.333C362.667 218.991 364.914 224.417 368.915 228.418C372.916 232.419 378.342 234.667 384 234.667H405.333C410.991 234.667 416.417 232.419 420.418 228.418C424.419 224.417 426.667 218.991 426.667 213.333C426.667 207.675 424.419 202.249 420.418 198.248C416.417 194.248 410.991 192 405.333 192ZM349.013 320C344.96 317.746 340.283 316.873 335.69 317.515C331.097 318.158 326.838 320.279 323.558 323.558C320.279 326.838 318.158 331.097 317.515 335.69C316.873 340.283 317.746 344.96 320 349.013L335.147 364.16C339.144 368.133 344.551 370.364 350.187 370.364C355.823 370.364 361.23 368.133 365.227 364.16C369.2 360.163 371.43 354.756 371.43 349.12C371.43 343.484 369.2 338.077 365.227 334.08L349.013 320ZM213.333 96C190.127 96 167.442 102.881 148.146 115.774C128.851 128.667 113.812 146.992 104.931 168.432C96.0508 189.872 93.7272 213.463 98.2545 236.224C102.782 258.984 113.957 279.891 130.366 296.301C146.775 312.71 167.682 323.885 190.443 328.412C213.203 332.939 236.795 330.616 258.235 321.735C279.675 312.854 298 297.816 310.892 278.52C323.785 259.225 330.667 236.54 330.667 213.333C330.61 182.232 318.23 152.42 296.238 130.428C274.246 108.436 244.435 96.0564 213.333 96ZM213.333 288C198.566 288 184.13 283.621 171.851 275.416C159.572 267.212 150.002 255.551 144.35 241.907C138.699 228.263 137.22 213.25 140.101 198.767C142.982 184.283 150.094 170.978 160.536 160.536C170.978 150.094 184.283 142.982 198.767 140.101C213.25 137.22 228.263 138.699 241.907 144.35C255.551 150.002 267.212 159.572 275.416 171.851C283.621 184.13 288 198.566 288 213.333C288 233.136 280.133 252.128 266.131 266.131C252.128 280.133 233.136 288 213.333 288ZM213.333 362.667C207.675 362.667 202.249 364.914 198.248 368.915C194.248 372.916 192 378.342 192 384V405.333C192 410.991 194.248 416.417 198.248 420.418C202.249 424.419 207.675 426.667 213.333 426.667C218.991 426.667 224.417 424.419 228.418 420.418C232.419 416.417 234.667 410.991 234.667 405.333V384C234.667 378.342 232.419 372.916 228.418 368.915C224.417 364.914 218.991 362.667 213.333 362.667Z" fill="#3D6CEE"/>
</svg>
