<svg width="512" height="512" viewBox="0 0 512 512" fill="none" xmlns="http://www.w3.org/2000/svg">
<g clip-path="url(#clip0_105_54)">
<path d="M381.952 512H130.048C127.95 512 125.873 511.587 123.935 510.784C121.997 509.981 120.236 508.805 118.752 507.321C117.269 505.838 116.092 504.077 115.29 502.139C114.487 500.201 114.074 498.123 114.074 496.026V410.726C114.305 406.639 116.091 402.796 119.067 399.984C122.042 397.173 125.98 395.606 130.074 395.606C134.167 395.606 138.105 397.173 141.081 399.984C144.056 402.796 145.842 406.639 146.074 410.726V480H365.926V410.726C365.884 385.315 357.043 360.703 340.907 341.073C324.77 321.443 302.334 308.007 277.412 303.047C252.489 298.088 226.619 301.913 204.197 313.87C181.775 325.828 164.186 345.181 154.419 368.64C152.79 372.558 149.671 375.667 145.748 377.285C141.826 378.903 137.422 378.897 133.504 377.267C129.586 375.638 126.477 372.519 124.859 368.596C123.241 364.674 123.247 360.27 124.877 356.352C137.487 326.063 160.197 301.077 189.148 285.64C218.098 270.203 251.501 265.27 283.678 271.677C315.854 278.085 344.819 295.438 365.647 320.788C386.475 346.137 397.882 377.918 397.926 410.726V496.026C397.926 498.123 397.513 500.201 396.71 502.139C395.908 504.077 394.731 505.838 393.248 507.321C391.764 508.805 390.003 509.981 388.065 510.784C386.127 511.587 384.05 512 381.952 512ZM386.56 186.214C385.673 186.265 384.784 186.265 383.898 186.214C379.716 185.5 375.987 183.161 373.522 179.709C371.057 176.256 370.057 171.969 370.739 167.782C371.81 161.404 372.341 154.947 372.326 148.48C372.375 121.202 362.835 94.7754 345.376 73.8174C327.916 52.8595 303.647 38.7038 276.809 33.8242C249.972 28.9446 222.273 33.6516 198.553 47.1224C174.834 60.5933 156.603 81.9712 147.046 107.52C146.395 109.601 145.326 111.528 143.905 113.182C142.483 114.835 140.739 116.182 138.779 117.138C136.819 118.094 134.685 118.641 132.507 118.743C130.328 118.846 128.152 118.503 126.111 117.736C124.069 116.968 122.206 115.792 120.636 114.279C119.065 112.766 117.819 110.949 116.975 108.938C116.131 106.927 115.706 104.766 115.727 102.585C115.747 100.404 116.213 98.2506 117.094 96.2561C129.366 63.7608 152.641 36.5961 182.871 19.4884C213.101 2.38069 248.372 -3.58714 282.547 2.62325C316.723 8.83363 347.639 26.8291 369.918 53.4787C392.196 80.1282 404.426 113.745 404.48 148.48C404.485 156.696 403.817 164.898 402.483 173.005C401.818 176.733 399.854 180.105 396.939 182.523C394.024 184.942 390.347 186.249 386.56 186.214Z" fill="#3D6CEE"/>
<path d="M256 245.248C236.824 245.248 218.079 239.56 202.137 228.903C186.195 218.246 173.773 203.1 166.442 185.381C159.11 167.662 157.2 148.167 160.952 129.361C164.704 110.556 173.95 93.2868 187.521 79.7382C201.091 66.1896 218.375 56.9708 237.186 53.2485C255.997 49.5261 275.489 51.4674 293.197 58.8267C310.904 66.186 326.031 78.6326 336.662 94.5915C347.293 110.55 352.952 129.304 352.922 148.48C352.854 174.15 342.616 198.748 324.45 216.885C306.284 235.022 281.67 245.221 256 245.248ZM256 83.4048C243.166 83.4049 230.62 87.2086 219.948 94.3355C209.275 101.462 200.953 111.593 196.035 123.447C191.117 135.301 189.822 148.346 192.315 160.936C194.807 173.525 200.975 185.093 210.039 194.179C219.104 203.264 230.657 209.459 243.241 211.982C255.824 214.504 268.873 213.24 280.738 208.35C292.604 203.46 302.754 195.163 309.906 184.507C317.058 173.851 320.891 161.314 320.922 148.48C320.935 131.243 314.105 114.707 301.931 102.504C289.757 90.3017 273.237 83.432 256 83.4048Z" fill="#3D6CEE"/>
<path d="M277.504 192.205C275.399 192.205 273.316 191.79 271.371 190.985C269.427 190.179 267.66 188.999 266.172 187.511C264.684 186.023 263.504 184.256 262.698 182.312C261.893 180.367 261.478 178.284 261.478 176.179V164.249C261.355 162.072 261.678 159.893 262.426 157.844C263.174 155.796 264.333 153.922 265.831 152.337C267.329 150.752 269.134 149.489 271.137 148.626C273.14 147.763 275.298 147.318 277.478 147.318C279.659 147.318 281.817 147.763 283.82 148.626C285.822 149.489 287.628 150.752 289.126 152.337C290.624 153.922 291.782 155.796 292.531 157.844C293.279 159.893 293.602 162.072 293.478 164.249V176.179C293.478 180.42 291.797 184.489 288.803 187.493C285.808 190.497 281.745 192.191 277.504 192.205Z" fill="#3D6CEE"/>
<path d="M386.509 186.214H277.504C275.327 186.338 273.147 186.015 271.099 185.267C269.051 184.518 267.177 183.36 265.592 181.862C264.007 180.364 262.744 178.559 261.881 176.556C261.018 174.553 260.573 172.395 260.573 170.214C260.573 168.034 261.018 165.876 261.881 163.873C262.744 161.87 264.007 160.065 265.592 158.567C267.177 157.069 269.051 155.91 271.099 155.162C273.147 154.414 275.327 154.091 277.504 154.214H386.509C388.686 154.091 390.866 154.414 392.914 155.162C394.962 155.91 396.836 157.069 398.421 158.567C400.006 160.065 401.269 161.87 402.132 163.873C402.995 165.876 403.44 168.034 403.44 170.214C403.44 172.395 402.995 174.553 402.132 176.556C401.269 178.559 400.006 180.364 398.421 181.862C396.836 183.36 394.962 184.518 392.914 185.267C390.866 186.015 388.686 186.338 386.509 186.214ZM123.648 187.29C121.535 187.303 119.44 186.899 117.484 186.099C115.528 185.3 113.749 184.122 112.25 182.632C110.751 181.143 109.561 179.371 108.75 177.42C107.938 175.469 107.52 173.377 107.52 171.264V148.48C107.751 144.393 109.538 140.55 112.513 137.738C115.488 134.926 119.427 133.36 123.52 133.36C127.614 133.36 131.552 134.926 134.527 137.738C137.502 140.55 139.289 144.393 139.52 148.48V171.418C139.48 175.615 137.795 179.629 134.827 182.597C131.859 185.564 127.845 187.25 123.648 187.29Z" fill="#3D6CEE"/>
</g>
<defs>
<clipPath id="clip0_105_54">
<rect width="512" height="512" fill="white"/>
</clipPath>
</defs>
</svg>
