<svg width="470" height="427" viewBox="0 0 470 427" fill="none" xmlns="http://www.w3.org/2000/svg">
<path d="M405.333 0H192C175.026 0 158.748 6.74284 146.745 18.7452C134.743 30.7475 128 47.0261 128 64V213.333C128 230.307 134.743 246.586 146.745 258.588C158.748 270.59 175.026 277.333 192 277.333H405.333C422.307 277.333 438.586 270.59 450.588 258.588C462.591 246.586 469.333 230.307 469.333 213.333V64C469.333 47.0261 462.591 30.7475 450.588 18.7452C438.586 6.74284 422.307 0 405.333 0ZM426.667 213.333C426.667 218.991 424.419 224.417 420.418 228.418C416.418 232.419 410.991 234.667 405.333 234.667H192C186.342 234.667 180.916 232.419 176.915 228.418C172.914 224.417 170.667 218.991 170.667 213.333V64C170.667 58.342 172.914 52.9158 176.915 48.9151C180.916 44.9143 186.342 42.6667 192 42.6667H405.333C410.991 42.6667 416.418 44.9143 420.418 48.9151C424.419 52.9158 426.667 58.342 426.667 64V213.333ZM352 128C344.102 128.027 336.497 130.993 330.667 136.32C326.079 132.15 320.38 129.403 314.26 128.412C308.141 127.42 301.865 128.228 296.196 130.736C290.527 133.244 285.709 137.345 282.326 142.54C278.944 147.735 277.143 153.801 277.143 160C277.143 166.199 278.944 172.265 282.326 177.46C285.709 182.655 290.527 186.756 296.196 189.264C301.865 191.772 308.141 192.58 314.26 191.588C320.38 190.597 326.079 187.85 330.667 183.68C334.519 187.181 339.168 189.69 344.209 190.988C349.25 192.287 354.532 192.335 359.597 191.13C364.661 189.925 369.355 187.503 373.272 184.073C377.188 180.643 380.209 176.31 382.071 171.448C383.934 166.587 384.582 161.345 383.96 156.176C383.338 151.008 381.465 146.069 378.502 141.788C375.539 137.508 371.577 134.014 366.959 131.612C362.341 129.209 357.206 127.969 352 128ZM320 320C314.342 320 308.916 322.248 304.915 326.248C300.914 330.249 298.667 335.675 298.667 341.333V362.667C298.667 368.325 296.419 373.751 292.418 377.752C288.418 381.752 282.991 384 277.333 384H64C58.342 384 52.9158 381.752 48.9151 377.752C44.9143 373.751 42.6667 368.325 42.6667 362.667V277.333H64C69.658 277.333 75.0842 275.086 79.0849 271.085C83.0857 267.084 85.3333 261.658 85.3333 256C85.3333 250.342 83.0857 244.916 79.0849 240.915C75.0842 236.914 69.658 234.667 64 234.667H42.6667V213.333C42.6667 207.675 44.9143 202.249 48.9151 198.248C52.9158 194.248 58.342 192 64 192C69.658 192 75.0842 189.752 79.0849 185.752C83.0857 181.751 85.3333 176.325 85.3333 170.667C85.3333 165.009 83.0857 159.582 79.0849 155.582C75.0842 151.581 69.658 149.333 64 149.333C47.0261 149.333 30.7475 156.076 18.7452 168.078C6.74284 180.081 0 196.359 0 213.333V362.667C0 379.64 6.74284 395.919 18.7452 407.921C30.7475 419.924 47.0261 426.667 64 426.667H277.333C294.307 426.667 310.586 419.924 322.588 407.921C334.591 395.919 341.333 379.64 341.333 362.667V341.333C341.333 335.675 339.086 330.249 335.085 326.248C331.084 322.248 325.658 320 320 320ZM106.667 341.333H128C133.658 341.333 139.084 339.086 143.085 335.085C147.086 331.084 149.333 325.658 149.333 320C149.333 314.342 147.086 308.916 143.085 304.915C139.084 300.914 133.658 298.667 128 298.667H106.667C101.009 298.667 95.5825 300.914 91.5817 304.915C87.581 308.916 85.3333 314.342 85.3333 320C85.3333 325.658 87.581 331.084 91.5817 335.085C95.5825 339.086 101.009 341.333 106.667 341.333Z" fill="white"/>
</svg>
