<svg width="480" height="480" viewBox="0 0 480 480" fill="none" xmlns="http://www.w3.org/2000/svg">
<path fill-rule="evenodd" clip-rule="evenodd" d="M333.792 375.68C325.168 364.768 320 350.976 320 336C320 300.672 348.672 272 384 272C419.328 272 448 300.672 448 336C448 350.976 442.832 364.768 434.208 375.68C442.432 379.568 450.016 384.88 456.576 391.424C471.568 406.432 480 426.784 480 448V463.808C480 478.832 464 480 464 480H16C16 480 0 478.832 0 463.808C0 462.656 0 456.464 0 448C0 426.784 8.432 406.432 23.424 391.424C29.984 384.88 37.568 379.568 45.792 375.68C37.168 364.768 32 350.976 32 336C32 300.672 60.672 272 96 272C131.328 272 160 300.672 160 336C160 350.976 154.832 364.768 146.208 375.68C154.192 379.456 161.568 384.576 168 390.864C174.432 384.576 181.808 379.456 189.792 375.68C181.168 364.768 176 350.976 176 336C176 300.672 204.672 272 240 272C275.328 272 304 300.672 304 336C304 350.976 298.832 364.768 290.208 375.68C298.192 379.456 305.568 384.576 312 390.864C318.432 384.576 325.808 379.456 333.792 375.68ZM304 448H176C176 435.264 181.056 423.056 190.064 414.064C199.056 405.056 211.264 400 224 400H256C268.736 400 280.944 405.056 289.936 414.064C298.944 423.056 304 435.264 304 448ZM96 304C113.664 304 128 318.336 128 336C128 353.664 113.664 368 96 368C78.336 368 64 353.664 64 336C64 318.336 78.336 304 96 304ZM384 304C401.664 304 416 318.336 416 336C416 353.664 401.664 368 384 368C366.336 368 352 353.664 352 336C352 318.336 366.336 304 384 304ZM240 304C257.664 304 272 318.336 272 336C272 353.664 257.664 368 240 368C222.336 368 208 353.664 208 336C208 318.336 222.336 304 240 304ZM55.456 208L82.704 248.72C85.664 253.168 90.656 255.824 96 255.824C101.344 255.824 106.336 253.168 109.296 248.72L136.544 208H199.456L226.704 248.72C229.664 253.168 234.656 255.824 240 255.824C245.344 255.824 250.336 253.168 253.296 248.72L280.544 208H343.456L370.704 248.72C373.664 253.168 378.656 255.824 384 255.824C389.344 255.824 394.336 253.168 397.296 248.72L424.544 208H432C444.736 208 456.944 202.944 465.936 193.936C474.944 184.944 480 172.736 480 160C480 128.224 480 79.776 480 48C480 21.488 458.512 0 432 0H48.128C21.616 0 0.128 21.488 0.128 48C0.128 79.776 0.128 128.224 0.128 160C0.128 172.736 5.184 184.944 14.176 193.936C23.184 202.944 35.392 208 48.128 208H55.456ZM368 144H400C408.832 144 416 136.832 416 128C416 119.168 408.832 112 400 112H368C359.168 112 352 119.168 352 128C352 136.832 359.168 144 368 144ZM80 144H144C152.832 144 160 136.832 160 128C160 119.168 152.832 112 144 112H80C71.168 112 64 119.168 64 128C64 136.832 71.168 144 80 144ZM208 144H304C312.832 144 320 136.832 320 128C320 119.168 312.832 112 304 112H208C199.168 112 192 119.168 192 128C192 136.832 199.168 144 208 144ZM304 96H400C408.832 96 416 88.832 416 80C416 71.168 408.832 64 400 64H304C295.168 64 288 71.168 288 80C288 88.832 295.168 96 304 96ZM80 96H240C248.832 96 256 88.832 256 80C256 71.168 248.832 64 240 64H80C71.168 64 64 71.168 64 80C64 88.832 71.168 96 80 96Z" fill="white"/>
</svg>
