<svg width="427" height="427" viewBox="0 0 427 427" fill="none" xmlns="http://www.w3.org/2000/svg">
<path d="M382.833 90.9941L223.686 2.672C217.248 -0.890667 209.417 -0.890667 202.978 2.672L43.8016 91.0155C16.7808 106.079 0 134.713 0 165.755V298.661C0 345.714 38.2805 383.995 85.3333 383.995H110.598C119.433 408.773 142.893 426.661 170.667 426.661H256C283.774 426.661 307.234 408.773 316.068 383.995H341.333C388.386 383.995 426.667 345.714 426.667 298.661V165.755C426.667 134.713 409.886 106.079 382.833 90.9941ZM256 383.995H170.667C158.906 383.995 149.333 374.422 149.333 362.661H277.333C277.333 374.422 267.761 383.995 256 383.995ZM277.333 319.995H149.333V298.661H277.333V319.995ZM149.333 255.995C149.333 244.234 158.906 234.661 170.667 234.661H256C267.761 234.661 277.333 244.234 277.333 255.995H149.333ZM384 298.661C384 322.192 364.864 341.328 341.333 341.328H320V255.995C320 220.703 291.292 191.995 256 191.995H170.667C135.375 191.995 106.667 220.703 106.667 255.995V341.328H85.3333C61.8027 341.328 42.6667 322.192 42.6667 298.661V165.755C42.6667 150.171 51.0635 135.818 64.5419 128.306L213.333 45.7248L362.093 128.287C375.603 135.818 384 150.173 384 165.755V298.661Z" fill="white"/>
</svg>
